Coordinates
version=1
nRows=16
nColumns=40
inDegrees=yes

Units are S.I. units (second, meters, Newtons, ...)
Angles are in degrees.

endheader
time	pelvis_tilt	pelvis_list	pelvis_rotation	pelvis_tx	pelvis_ty	pelvis_tz	hip_flexion_r	hip_adduction_r	hip_rotation_r	knee_angle_r	knee_angle_r_beta	ankle_angle_r	subtalar_angle_r	mtp_angle_r	hip_flexion_l	hip_adduction_l	hip_rotation_l	knee_angle_l	knee_angle_l_beta	ankle_angle_l	subtalar_angle_l	mtp_angle_l	lumbar_extension	lumbar_bending	lumbar_rotation	arm_flex_r	arm_add_r	arm_rot_r	elbow_flex_r	pro_sup_r	wrist_flex_r	wrist_dev_r	arm_flex_l	arm_add_l	arm_rot_l	elbow_flex_l	pro_sup_l	wrist_flex_l	wrist_dev_l
     31.36650000	     -6.66097191	     -5.63504538	      5.42370127	      0.96686469	      0.91730240	      0.48477512	      3.72362229	      1.72596700	    -15.90864230	     12.49585667	     12.49585667	     17.10446307	      0.44848466	     -3.64426295	     34.68937930	     -6.62150784	      0.88464225	     18.97082257	     18.97082257	      7.82239517	     -7.96177333	      9.68874742	    -10.04610383	      5.17873032	      2.66596573	     50.74353049	    -11.58206884	      4.28294269	    116.34462458	     43.74410660	      0.00000000	      0.00000000	    -13.65897861	     -5.97059602	     -2.28505799	     29.59769479	     46.17157125	      0.00000000	      0.00000000
     31.37800000	     -6.55384134	     -5.63532771	      5.18124981	      0.96815420	      0.91564895	      0.48284753	      3.35544806	      1.53075318	    -15.58047144	     13.39631121	     13.39631121	     18.69148993	      0.62119463	     -1.06475599	     33.95331120	     -6.64781308	      0.64114434	     19.11822998	     19.11822998	      4.88842121	     -9.43574754	      5.36864479	     -9.85251275	      5.10375942	      2.65476060	     50.73005444	    -10.82718829	      4.93383124	    116.78047459	     43.80012882	      0.00000000	      0.00000000	    -14.65050624	     -5.81637784	     -2.56971934	     30.19513144	     46.18014345	      0.00000000	      0.00000000
     31.38950000	     -6.47512874	     -5.53212740	      4.95367904	      0.96930595	      0.91396579	      0.48079910	      3.09936239	      1.19427900	    -15.20158287	     14.35907302	     14.35907302	     19.35891305	      0.25982273	     -1.13770244	     33.59485594	     -6.61164552	      0.28914496	     20.04983069	     20.04983069	      3.84317192	    -10.05739420	      5.13808680	     -9.67755498	      4.92149407	      2.70758076	     50.44451589	    -10.11595174	      5.30323161	    117.40967737	     43.78226032	      0.00000000	      0.00000000	    -15.09859326	     -5.67663496	     -2.58944340	     29.90697926	     46.17352569	      0.00000000	      0.00000000
     31.40100000	     -6.27923883	     -5.38732001	      4.73506590	      0.97050422	      0.91261785	      0.47865690	      2.78340188	      0.80347487	    -14.76262800	     15.43983248	     15.43983248	     19.92193164	     -0.17773137	     -1.21298158	     33.14094540	     -6.53330326	      0.02674079	     21.02600543	     21.02600543	      2.93802153	    -10.63115970	      4.89178461	     -9.61192387	      4.70047091	      2.75202048	     49.91131064	     -9.61672085	      5.66551971	    117.79323746	     43.76490112	      0.00000000	      0.00000000	    -15.33332989	     -5.60431778	     -2.61525520	     29.70767067	     46.17234983	      0.00000000	      0.00000000
     31.41250000	     -6.15014817	     -5.18373637	      4.53691822	      0.97144153	      0.91129115	      0.47633035	      2.87765830	      0.25703210	    -14.21803224	     17.14674654	     17.14674654	     20.45971991	     -1.01813332	     -1.32231391	     32.83489551	     -6.34701582	     -0.12786901	     22.05694525	     22.05694525	      2.15265647	    -11.28104981	      4.40587181	     -9.54091090	      4.41416250	      2.69517277	     49.21522234	     -9.09783951	      6.13226905	    118.27166907	     43.74178165	      0.00000000	      0.00000000	    -15.44382590	     -5.52092387	     -2.64055139	     29.43664049	     46.17327845	      0.00000000	      0.00000000
     31.42400000	     -6.05017292	     -4.94377952	      4.35281736	      0.97214796	      0.91020230	      0.47389166	      3.25791128	     -0.35581821	    -13.48284762	     19.28031953	     19.28031953	     20.89514492	     -2.20714817	     -1.50124047	     32.56359881	     -6.08964902	     -0.17467435	     23.01507582	     23.01507582	      1.56344939	    -11.89652293	      3.74908944	     -9.46501403	      4.08673891	      2.63896658	     48.33669080	     -8.77391062	      6.64278113	    118.66003153	     43.72200455	      0.00000000	      0.00000000	    -15.36704175	     -5.39647055	     -2.66079373	     29.05923820	     46.17654800	      0.00000000	      0.00000000
     31.43550000	     -5.82454439	     -4.69523664	      4.20183142	      0.97273231	      0.90970947	      0.47129690	      3.65650549	     -0.99979517	    -12.87176213	     21.64063239	     21.64063239	     20.91855602	     -3.48740256	     -1.81297674	     32.17867637	     -5.82053175	     -0.27204200	     23.97619179	     23.97619179	      1.42012195	    -12.41556375	      3.18418177	     -9.56733136	      3.78198561	      2.53788610	     47.21481790	     -8.61172864	      7.12614886	    118.82308680	     43.70700802	      0.00000000	      0.00000000	    -15.02363673	     -5.33666338	     -2.65909320	     28.71630499	     46.18131813	      0.00000000	      0.00000000
     31.44700000	     -5.62146534	     -4.39446557	      4.08796223	      0.97300346	      0.90952634	      0.46855197	      4.38692876	     -1.74339731	    -12.18867345	     24.51156780	     24.51156780	     20.67806496	     -5.02748703	     -2.34141301	     31.83463190	     -5.47066719	     -0.37553638	     24.91150753	     24.91150753	      1.56398391	    -12.81641998	      2.69072454	     -9.69694501	      3.42540556	      2.44767927	     45.90432711	     -8.55564898	      7.65312826	    118.84944275	     43.69283307	      0.00000000	      0.00000000	    -14.52886802	     -5.32111587	     -2.63570969	     28.35490265	     46.18563165	      0.00000000	      0.00000000
     31.45850000	     -5.42401118	     -4.10704141	      4.01481463	      0.97300461	      0.90970523	      0.46571238	      5.37155332	     -2.48445148	    -11.52470514	     27.75049797	     27.75049797	     20.08223532	     -6.76547287	     -2.99321761	     31.43844565	     -5.10645592	     -0.45903353	     25.69869199	     25.69869199	      1.99642290	    -13.07998101	      2.26634408	     -9.85747139	      3.11661613	      2.31856739	     44.41466392	     -8.66604929	      8.19709523	    118.69404130	     43.68209675	      0.00000000	      0.00000000	    -13.84785565	     -5.30247039	     -2.58854105	     28.02937171	     46.18956031	      0.00000000	      0.00000000
     31.47000000	     -5.36705046	     -3.86526253	      3.95809736	      0.97262369	      0.90999204	      0.46277995	      6.79562857	     -3.17915601	    -10.77505373	     31.37594990	     31.37594990	     18.97271605	     -8.89245587	     -3.86540800	     31.10438461	     -4.75746304	     -0.52989950	     26.26685015	     26.26685015	      2.64406326	    -13.18209853	      1.91318183	     -9.89585623	      2.87158574	      2.21485778	     42.78810374	     -9.04124865	      8.80485849	    118.35376182	     43.67719300	      0.00000000	      0.00000000	    -12.96162884	     -5.28033253	     -2.50999794	     27.60009837	     46.19206383	      0.00000000	      0.00000000
     31.48150000	     -5.20526863	     -3.55434884	      3.89430782	      0.97214192	      0.91076433	      0.45981506	      8.23141099	     -3.96280795	    -10.14962004	     35.14226336	     35.14226336	     17.52757540	    -10.82738588	     -4.64198513	     30.59965408	     -4.37239664	     -0.78543775	     26.75631336	     26.75631336	      3.38754968	    -13.20252974	      1.59941836	    -10.08190426	      2.59075261	      2.13456839	     40.97022352	     -9.41819595	      9.40179756	    117.76477112	     43.67721076	      0.00000000	      0.00000000	    -12.01596876	     -5.34142060	     -2.44676101	     27.36958443	     46.19785240	      0.00000000	      0.00000000
     31.49300000	     -5.07188315	     -3.29439103	      3.84849494	      0.97140660	      0.91174999	      0.45688348	      9.84749811	     -4.70745517	     -9.65454697	     39.02658159	     39.02658159	     15.73039736	    -12.70484805	     -5.23087559	     30.02344724	     -4.03516283	     -1.06080211	     27.02904053	     27.02904053	      4.17917322	    -13.07866339	      1.30031219	    -10.24866624	      2.38053364	      2.03410159	     39.04232712	     -9.89403662	      9.97611199	    116.94469841	     43.68319070	      0.00000000	      0.00000000	    -11.01412944	     -5.41675136	     -2.39477699	     27.30767482	     46.20613470	      0.00000000	      0.00000000
     31.50450000	     -5.00307735	     -3.06044197	      3.79783869	      0.97049214	      0.91285700	      0.45408436	     11.66182734	     -5.41376003	     -9.21226083	     42.96976568	     42.96976568	     13.64624406	    -14.58584818	     -5.60087812	     29.41437722	     -3.73766979	     -1.38015232	     27.10274980	     27.10274980	      4.94162940	    -12.79741700	      1.01661623	    -10.34978213	      2.20119919	      1.97460977	     37.01095518	    -10.48670802	     10.54423462	    115.85990941	     43.69684072	      0.00000000	      0.00000000	     -9.97025728	     -5.51512513	     -2.35812394	     27.37603859	     46.21715326	      0.00000000	      0.00000000
     31.51600000	     -5.04479017	     -2.99847209	      3.70802952	      0.96943707	      0.91399644	      0.45153466	     13.63721794	     -5.89760265	     -8.84511274	     46.75846405	     46.75846405	     11.26668939	    -16.49235929	     -5.81692639	     28.83080557	     -3.64683806	     -1.75936685	     26.97365693	     26.97365693	      5.74657998	    -12.28016431	      0.75938797	    -10.27869590	      2.21091670	      2.06973377	     35.00188983	    -11.41301035	     11.09111468	    114.26158120	     43.73373309	      0.00000000	      0.00000000	     -8.86181657	     -5.59528356	     -2.31281154	     27.44588316	     46.22612543	      0.00000000	      0.00000000
     31.52750000	     -4.89676766	     -2.76069052	      3.64809512	      0.96835248	      0.91543122	      0.44893496	     15.43634366	     -6.67455737	     -8.67195740	     50.49235055	     50.49235055	      9.14743007	    -17.63175266	     -5.50369973	     28.00570489	     -3.36865042	     -2.15965652	     26.81729127	     26.81729127	      6.38350500	    -11.87732391	      0.48424558	    -10.50933525	      2.06098238	      1.93898024	     32.83106987	    -11.87319214	     11.60027280	    112.88483929	     43.75747456	      0.00000000	      0.00000000	     -7.82759119	     -5.79200039	     -2.33369786	     27.81944868	     46.24503252	      0.00000000	      0.00000000
     31.53900000	     -4.90835002	     -2.73914248	      3.53057073	      0.96711812	      0.91671900	      0.44681232	     17.56043119	     -7.10525727	     -8.41473499	     54.28041250	     54.28041250	      8.26270625	    -18.14571534	     -1.47047912	     27.30302969	     -3.41644855	     -2.78842062	     26.52168393	     26.52168393	      7.05336542	    -10.90868120	      0.04727773	    -10.43048699	      2.10497936	      1.74205777	     31.05544747	    -12.34954806	     12.06053892	    109.77096649	     43.88918800	      0.00000000	      0.00000000	     -7.05906536	     -5.98723070	     -2.43519427	     28.56686771	     46.25524956	      0.00000000	      0.00000000
